<?xml version="1.0" encoding="UTF-8" standalone="no"?>
<svg
   xmlns:dc="http://purl.org/dc/elements/1.1/"
   xmlns:cc="http://creativecommons.org/ns#"
   xmlns:rdf="http://www.w3.org/1999/02/22-rdf-syntax-ns#"
   xmlns:svg="http://www.w3.org/2000/svg"
   xmlns="http://www.w3.org/2000/svg"
   viewBox="0 0 36 32"
   height="32"
   width="36"
   xml:space="preserve"
   id="svg2"
   version="1.1"><metadata
     id="metadata8"><rdf:RDF><cc:Work
         rdf:about=""><dc:format>image/svg+xml</dc:format><dc:type
           rdf:resource="http://purl.org/dc/dcmitype/StillImage" /></cc:Work></rdf:RDF></metadata><defs
     id="defs6"><clipPath
       id="clipPath20"
       clipPathUnits="userSpaceOnUse"><path
         id="path18"
         d="m 26.14785,22.20836 c -0.05357,0.95334 -0.83489,1.71144 -1.8173,1.76347 -1.9823,0.1051 -5.86131,0.0029 -9.57049,-1.85886 C 12.8692,21.16384 10.86941,19.55468 9.27349,17.69806 9.25383,17.67519 9.234701,17.65217 9.215187,17.62925 L 5.593345,17.35775 C 4.997176,17.31303 4.466169,17.0098 4.136445,16.52586 L 1.665497,12.89906 C 1.415427,12.53203 1.375673,12.07271 1.559083,11.67038 1.742542,11.26801 2.119508,10.9876 2.567528,10.92024 L 5.618946,10.46162 C 5.608175,10.40406 5.597354,10.34654 5.587452,10.28898 5.485869,9.699293 5.6872,9.093014 6.126091,8.667156 L 10.37647,4.542499 c 0.36387,-0.353108 0.85556,-0.547779 1.35937,-0.547779 0.10376,0 0.20809,0.0083 0.31195,0.025125 0.05931,0.00961 0.11858,0.020109 0.1779,0.030562 L 12.6983,1.08923 C 12.76771,0.6544664 13.05667,0.2886083 13.47121,0.1106246 13.64371,0.03656237 13.82625,0 14.00797,0 c 0.25519,0 0.50859,0.07214036 0.72944,0.213843 l 3.73738,2.397882 c 0.49874,0.320014 0.81117,0.835309 0.85716,1.413791 l 0.27978,3.514628 c 0.02362,0.018938 0.04738,0.0375 0.07095,0.056578 1.91328,1.548698 3.57156,3.489318 4.54957,5.324278 1.9186,3.59956 2.02375,7.36385 1.9156,9.28736 z M 17.6756,3.784814 14.10057,1.491088 13.63994,4.376937 c 1.51095,0.431108 3.00562,1.121574 4.42958,2.046555 L 17.88727,4.133891 C 17.87592,3.991063 17.79873,3.863798 17.6756,3.784814 Z M 11.40114,5.536855 7.150718,9.661511 C 7.042275,9.766792 6.992135,9.914682 7.016722,10.05714 c 0.126364,0.73326 0.94792,2.73847 1.190986,3.39603 L 15.2118,6.656319 C 14.39797,6.37343 12.41722,5.505542 11.80883,5.406824 11.66179,5.383105 11.50958,5.431621 11.40114,5.536855 Z M 8.064341,16.13253 C 7.111108,14.75071 6.399589,13.30026 5.955336,11.83402 l -2.973794,0.44695 2.363713,3.4693 c 0.081441,0.11953 0.212587,0.19439 0.359721,0.20541 z M 18.75457,8.676671 C 17.58402,7.72919 16.44776,7.04388 15.40043,6.547992 L 8.192444,13.5427 c 0.669398,1.32675 1.486365,2.43154 2.193826,3.25457 1.4769,1.71819 3.31376,3.20042 5.03962,4.06667 3.40418,1.70873 6.99081,1.80074 8.82578,1.70381 0.24288,-0.01285 0.43604,-0.2003 0.44928,-0.43603 0.10004,-1.78069 0.005,-5.26114 -1.75581,-8.56464 -0.89261,-1.67475 -2.42003,-3.45721 -4.19057,-4.890409 z" /></clipPath><clipPath
       id="clipPath26"
       clipPathUnits="userSpaceOnUse"><path
         id="path24"
         d="M -302,-1310 H 73 V 311 h -375 z" /></clipPath><clipPath
       id="clipPath36"
       clipPathUnits="userSpaceOnUse"><path
         id="path34"
         d="m 18.53749,14.82667 c 0.57694,5e-5 1.15411,0.21329 1.59335,0.63973 0.42562,0.4132 0.65997,0.96259 0.65997,1.54693 0,0.58433 -0.23438,1.13373 -0.65997,1.54692 -0.87859,0.85303 -2.30816,0.85297 -3.18669,0 -0.42562,-0.41319 -0.66,-0.96259 -0.66,-1.54692 0,-0.58434 0.23441,-1.13373 0.66,-1.54693 0.43933,-0.42653 1.0162,-0.63979 1.59334,-0.63973 z m -0.95604,3.11482 c 0.26356,0.25591 0.60977,0.38385 0.95598,0.38385 0.34625,0 0.69246,-0.12794 0.95602,-0.38385 0.25536,-0.24791 0.39597,-0.57754 0.39597,-0.92813 0,-0.3506 -0.14061,-0.68025 -0.39597,-0.92817 -0.52712,-0.51179 -1.38488,-0.51177 -1.91203,0 -0.25536,0.24792 -0.396,0.57754 -0.396,0.92814 0,0.35059 0.14067,0.68025 0.39603,0.92816 z" /></clipPath><clipPath
       id="clipPath42"
       clipPathUnits="userSpaceOnUse"><path
         id="path40"
         d="M -302,-1310 H 73 V 311 h -375 z" /></clipPath><clipPath
       id="clipPath52"
       clipPathUnits="userSpaceOnUse"><path
         id="path50"
         d="M -302,-1310 H 73 V 311 h -375 z" /></clipPath><clipPath
       id="clipPath64"
       clipPathUnits="userSpaceOnUse"><path
         id="path62"
         d="m 2.141033,4.444444 c 0.178113,0 0.356226,0.065913 0.492073,0.197828 l 2.272133,2.204869 c 0.271786,0.263739 0.271786,0.691315 0,0.955054 -0.271739,0.26374 -0.712405,0.26374 -0.98419,0 L 1.648961,5.597326 c -0.271785,-0.263739 -0.271785,-0.691315 0,-0.955054 0.135847,-0.13187 0.31396,-0.197828 0.492072,-0.197828 z" /></clipPath><clipPath
       id="clipPath70"
       clipPathUnits="userSpaceOnUse"><path
         id="path68"
         d="M -302,-1310 H 73 V 311 h -375 z" /></clipPath><clipPath
       id="clipPath80"
       clipPathUnits="userSpaceOnUse"><path
         id="path78"
         d="m 7.63015,6.002034 c -0.302484,0.293584 -0.793008,0.293584 -1.095545,0 L 1.672024,1.28329 C 1.369488,0.9897059 1.369488,0.513747 1.672024,0.220163 1.823292,0.07337095 2.021506,0 2.219771,0 2.418036,0 2.616301,0.07337095 2.767517,0.2202131 L 7.630099,4.938907 c 0.302588,0.293584 0.302588,0.769543 5.1e-5,1.063127 z" /></clipPath><clipPath
       id="clipPath86"
       clipPathUnits="userSpaceOnUse"><path
         id="path84"
         d="M -302,-1310 H 73 V 311 h -375 z" /></clipPath><clipPath
       id="clipPath96"
       clipPathUnits="userSpaceOnUse"><path
         id="path94"
         d="M 8.501041,3.357751 6.228907,1.152882 C 5.957121,0.8891421 5.957121,0.4615669 6.228907,0.1978273 6.3648,0.06595743 6.542913,0 6.720979,0 6.899046,0 7.077205,0.06591241 7.213051,0.1978273 L 9.485185,2.402696 c 0.271786,0.26374 0.271786,0.691315 0,0.955055 -0.271739,0.263739 -0.712405,0.263739 -0.984144,0 z" /></clipPath><clipPath
       id="clipPath102"
       clipPathUnits="userSpaceOnUse"><path
         id="path100"
         d="M -302,-1310 H 73 V 311 h -375 z" /></clipPath></defs><g
     transform="matrix(1.3333333,0,0,-1.3333333,0,32)"
     id="g10"><g
       id="g12" /><g
       id="g14"><g
         clip-path="url(#clipPath20)"
         id="g16"><g
           clip-path="url(#clipPath26)"
           id="g22"><path
             id="path28"
             style="fill:#0f1012;fill-opacity:1;fill-rule:nonzero;stroke:none"
             d="M -3.554878,29 H 31.17683 V -5 H -3.554878 Z" /></g></g></g><g
       id="g30"><g
         clip-path="url(#clipPath36)"
         id="g32"><g
           clip-path="url(#clipPath42)"
           id="g38"><path
             id="path44"
             style="fill:#0f1012;fill-opacity:1;fill-rule:nonzero;stroke:none"
             d="M 11.28415,24.2 H 25.79081 V 9.826666 H 11.28415 Z" /></g></g></g><g
       id="g46"><g
         clip-path="url(#clipPath52)"
         id="g48"><g
           transform="matrix(1,0,0,-1,16.28415,19.2)"
           id="g54"><path
             id="path56"
             style="fill:none;stroke:#0f1012;stroke-width:0.2;stroke-linecap:butt;stroke-linejoin:miter;stroke-miterlimit:10;stroke-dasharray:none;stroke-opacity:1"
             d="M 2.253349,4.373334 C 2.830281,4.373275 3.407454,4.160041 3.846689,3.733601 4.272313,3.320405 4.506667,2.771012 4.506667,2.186674 c 0,-0.584338 -0.234384,-1.13373 -0.659978,-1.5469269 -0.878589,-0.8530253 -2.308152,-0.852967 -3.1866806,0 C 0.2343845,1.052944 0,1.602336 0,2.186674 0,2.771012 0.2344146,3.320405 0.6600084,3.733601 1.099333,4.160128 1.676206,4.373392 2.253349,4.373334 Z M 1.297302,1.258506 c 0.263559,-0.25591 0.609773,-0.3838509 0.955986,-0.3838509 0.346244,0 0.692458,0.1279409 0.956017,0.3838509 0.255356,0.247918 0.395969,0.577542 0.395969,0.928139 0,0.350597 -0.140613,0.68025 -0.395969,0.928168 -0.527118,0.511792 -1.384885,0.511763 -1.912033,0 C 1.041916,2.866895 0.9012733,2.537271 0.9012733,2.186674 c 0,-0.350597 0.1406727,-0.68025 0.3960287,-0.928168 z" /></g></g></g><g
       id="g58"><g
         clip-path="url(#clipPath64)"
         id="g60"><g
           clip-path="url(#clipPath70)"
           id="g66"><path
             id="path72"
             style="fill:#0f1012;fill-opacity:1;fill-rule:nonzero;stroke:none"
             d="M -3.554878,13 H 10.10908 V -0.5555556 H -3.554878 Z" /></g></g></g><g
       id="g74"><g
         clip-path="url(#clipPath80)"
         id="g76"><g
           clip-path="url(#clipPath86)"
           id="g82"><path
             id="path88"
             style="fill:#0f1012;fill-opacity:1;fill-rule:nonzero;stroke:none"
             d="M -3.554878,11.22222 H 12.85705 V -5 H -3.554878 Z" /></g></g></g><g
       id="g90"><g
         clip-path="url(#clipPath96)"
         id="g92"><g
           clip-path="url(#clipPath102)"
           id="g98"><path
             id="path104"
             style="fill:#0f1012;fill-opacity:1;fill-rule:nonzero;stroke:none"
             d="M 1.025068,8.555556 H 14.68902 V -5 H 1.025068 Z" /></g></g></g></g></svg>